<?xml version="1.0" encoding="utf-8"?>
<!-- Svg Vector Icons : http://www.onlinewebfonts.com/icon -->
<!DOCTYPE svg PUBLIC "-//W3C//DTD SVG 1.1//EN" "http://www.w3.org/Graphics/SVG/1.1/DTD/svg11.dtd">
<svg version="1.1" xmlns="http://www.w3.org/2000/svg" xmlns:xlink="http://www.w3.org/1999/xlink" x="0px" y="0px" viewBox="0 0 1000 1000" enable-background="new 0 0 1000 1000" xml:space="preserve">
<metadata> Svg Vector Icons : http://www.onlinewebfonts.com/icon </metadata>
<g><path d="M500,10C229.4,10,10,229.4,10,500c0,270.6,219.4,490,490,490c270.6,0,490-219.4,490-490C990,229.4,770.6,10,500,10z M500,887.4c-37.9,0-68.6-30.8-68.6-68.6c0-37.9,30.8-68.6,68.6-68.6c37.9,0,68.6,30.8,68.6,68.6C568.6,856.7,537.9,887.4,500,887.4z M595,575.7c-0.4,0.2-0.8,0.3-1.2,0.6c-26.2,12.3-43.1,39-43.1,67.9c0,28-22.7,50.7-50.7,50.7c-28,0-50.7-22.7-50.7-50.7c0-67.5,39.3-129.8,100.1-159c0.4-0.2,0.8-0.4,1.2-0.6c41.7-19.6,68.6-62,68.6-108c0-65.8-53.5-119.3-119.3-119.3c-65.8,0-119.3,53.5-119.3,119.3c0,28-22.7,50.7-50.7,50.7c-28,0-50.7-22.7-50.7-50.7c0-121.7,99-220.6,220.6-220.6c121.7,0,220.6,99,220.6,220.6C720.6,461.2,671.4,539.2,595,575.7z"/></g>
</svg>